<svg width="529" height="373" viewBox="0 0 529 373" fill="none" xmlns="http://www.w3.org/2000/svg">
<path opacity="0.7" d="M490.912 206.858C490.912 206.858 497.965 74.0703 391.46 37.5163C284.955 0.962337 231.349 27.8183 197.493 62.1343C163.637 96.4503 152.352 118.83 113.559 123.306C74.7654 127.782 38.7934 135.242 20.4547 185.224C2.11601 235.206 25.392 274.744 60.6587 299.362C95.9254 323.98 136.835 297.87 169.28 313.536C201.725 329.202 222.18 355.312 288.481 358.296C354.783 361.28 356.899 341.138 390.755 309.806C424.611 278.474 484.564 311.298 490.912 206.858Z" fill="#25253D"/>
<path d="M423.263 218.026C425.894 219.234 432.313 219.085 432.32 219.085C432.327 219.085 430.909 214.609 430.817 214.371C429.407 211.252 424.949 206.105 421.324 206.62C420.724 206.724 420.151 206.961 419.643 207.315C419.135 207.668 418.703 208.131 418.376 208.673C418.048 209.214 417.831 209.823 417.74 210.459C417.649 211.095 417.685 211.744 417.846 212.364C418.453 215.02 421.027 216.989 423.263 218.026Z" fill="#49BC9F"/>
<path d="M425.485 237.698C428.208 238.123 433.949 236.363 434.393 236.206C435.337 239.676 436.499 243.075 437.871 246.381C438.654 248.306 439.507 250.231 440.382 252.141C439.86 251.327 439.387 250.611 439.31 250.514C437.194 247.903 431.593 244.181 428.222 245.695C427.669 245.963 427.176 246.35 426.775 246.833C426.373 247.315 426.072 247.882 425.891 248.495C425.711 249.109 425.654 249.756 425.725 250.394C425.796 251.032 425.993 251.648 426.303 252.2C427.545 254.595 430.535 255.781 432.941 256.154C435.346 256.527 440.304 255.132 441.602 254.744C441.948 255.49 442.307 256.236 442.632 256.937C444.289 260.436 445.961 263.912 447.499 267.381C448.042 268.605 448.535 269.828 449.029 271.052C448.564 270.306 448.169 269.731 448.098 269.642C445.982 267.031 440.375 263.308 437.01 264.823C436.458 265.09 435.965 265.478 435.563 265.96C435.162 266.443 434.861 267.009 434.68 267.623C434.499 268.236 434.442 268.883 434.513 269.522C434.584 270.16 434.781 270.775 435.092 271.328C436.333 273.722 439.324 274.908 441.729 275.281C444.134 275.654 448.613 274.394 450.193 273.939C450.666 275.207 451.138 276.483 451.547 277.728C451.801 278.594 452.111 279.407 452.323 280.28C452.535 281.152 452.774 282.01 453.028 282.861C453.402 284.509 453.804 286.218 454.129 287.837C454.361 288.963 454.566 290.075 454.778 291.127C454.249 289.903 453.169 287.538 453.064 287.352C451.322 284.42 446.335 279.892 442.787 280.809C442.202 280.985 441.659 281.289 441.193 281.702C440.727 282.115 440.349 282.627 440.083 283.205C439.816 283.783 439.668 284.414 439.648 285.056C439.628 285.699 439.736 286.339 439.966 286.934C440.847 289.493 443.626 291.141 445.954 291.895C448.528 292.73 454.213 291.969 454.926 291.895C455.264 293.693 455.582 295.438 455.857 297.117C456.463 300.772 456.922 304.055 457.267 306.815H459.666C459.249 303.943 458.699 300.519 457.98 296.677C457.641 294.849 457.239 292.909 456.816 290.918C458.526 290.188 460.196 289.356 461.817 288.426C463.693 290.567 468.489 293.081 469.11 293.402C468.461 295.095 467.812 296.744 467.17 298.288C465.844 301.518 464.582 304.383 463.474 306.815H466.063C467.022 304.577 468.073 302.011 469.166 299.176C469.836 297.46 470.521 295.603 471.205 293.693C471.91 293.842 477.553 295.05 480.148 294.439C482.532 293.872 485.417 292.447 486.496 289.963C486.765 289.386 486.916 288.756 486.94 288.113C486.964 287.471 486.86 286.83 486.634 286.233C486.409 285.636 486.067 285.095 485.631 284.647C485.196 284.198 484.676 283.852 484.105 283.629C480.635 282.398 475.345 286.561 473.405 289.344C473.286 289.508 472.235 291.432 471.586 292.663C471.861 291.917 472.143 291.127 472.418 290.313C472.968 288.717 473.476 287.113 474.026 285.382L474.731 282.816C474.992 281.966 475.162 281.033 475.387 280.138C475.853 278.042 476.234 275.893 476.579 273.722C477.898 274.237 482.617 275.96 485.043 275.789C487.47 275.617 490.531 274.662 491.942 272.372C492.291 271.846 492.531 271.248 492.647 270.617C492.763 269.986 492.752 269.336 492.615 268.71C492.478 268.084 492.218 267.495 491.851 266.982C491.485 266.469 491.021 266.043 490.489 265.733C487.237 263.957 481.404 267.225 479.09 269.664C478.942 269.821 477.468 271.768 476.678 272.85C476.869 271.544 477.073 270.239 477.228 268.911C477.68 265.076 478.018 261.175 478.378 257.288C478.484 256.094 478.611 254.908 478.731 253.722C479.196 253.909 484.768 256.102 487.505 255.9C489.938 255.721 492.993 254.774 494.403 252.484C494.752 251.957 494.992 251.358 495.107 250.727C495.223 250.096 495.211 249.446 495.073 248.82C494.936 248.193 494.675 247.605 494.308 247.092C493.941 246.579 493.476 246.154 492.943 245.844C489.692 244.069 483.866 247.336 481.552 249.776C481.376 249.962 479.253 252.76 478.731 253.506C478.992 250.895 479.274 248.284 479.648 245.74C480.145 242.289 480.852 238.875 481.764 235.52C481.982 235.609 487.787 237.922 490.594 237.713C493.028 237.534 496.082 236.586 497.493 234.296C497.84 233.769 498.079 233.171 498.194 232.539C498.309 231.908 498.297 231.259 498.159 230.633C498.022 230.007 497.761 229.419 497.395 228.906C497.028 228.393 496.564 227.968 496.033 227.657C492.781 225.881 486.955 229.149 484.634 231.588C484.458 231.782 482.173 234.803 481.813 235.378C481.869 235.184 481.905 234.975 481.961 234.789C482.962 231.443 484.241 228.197 485.784 225.091C486.616 223.367 487.505 221.771 488.401 220.242C489.438 220.786 494.213 223.226 496.759 223.345C499.305 223.464 502.331 222.868 503.968 220.756C504.369 220.273 504.67 219.706 504.85 219.092C505.031 218.478 505.088 217.83 505.016 217.192C504.945 216.553 504.748 215.937 504.437 215.384C504.126 214.832 503.709 214.354 503.213 213.983C500.166 211.842 494.044 214.415 491.476 216.571C491.335 216.691 490.065 218.063 489.127 219.048C489.536 218.362 489.953 217.646 490.362 216.996C491.892 214.557 493.437 212.423 494.819 210.551C495.609 209.492 496.35 208.544 497.048 207.671C498.332 207.671 503.509 207.485 505.773 206.359C508.037 205.232 510.506 203.218 511.042 200.54C511.188 199.916 511.209 199.267 511.102 198.635C510.995 198.002 510.763 197.401 510.422 196.869C510.08 196.338 509.637 195.889 509.12 195.55C508.604 195.212 508.026 194.993 507.424 194.907C503.784 194.49 499.46 199.764 498.134 202.919C498.022 203.195 496.689 207.679 496.724 207.679H496.801C496.096 208.5 495.391 209.395 494.608 210.394C493.197 212.244 491.589 214.341 490.002 216.758C488.28 219.338 486.7 222.02 485.269 224.792C483.642 227.891 482.278 231.137 481.192 234.49C481.192 234.527 481.192 234.572 481.192 234.617C481.192 233.483 481.192 230.313 481.136 230.066C480.72 226.642 478.004 220.279 474.4 219.578C473.8 219.479 473.186 219.514 472.6 219.682C472.013 219.85 471.467 220.147 470.996 220.553C470.525 220.959 470.14 221.465 469.866 222.038C469.592 222.612 469.436 223.24 469.406 223.882C469.202 226.605 471.064 229.328 472.884 231.051C474.936 232.991 480.642 234.863 481.087 235.012C480.063 238.458 479.26 241.972 478.681 245.531C478.336 247.597 478.04 249.694 477.771 251.797C477.771 250.82 477.771 249.94 477.729 249.82C477.306 246.396 474.59 240.033 470.993 239.332C470.393 239.231 469.779 239.266 469.192 239.434C468.605 239.601 468.058 239.898 467.587 240.304C467.116 240.71 466.731 241.217 466.457 241.791C466.184 242.365 466.028 242.994 465.999 243.636C465.788 246.359 467.657 249.082 469.477 250.805C471.297 252.528 476.149 254.252 477.433 254.684C477.334 255.498 477.235 256.303 477.144 257.109C476.706 260.996 476.283 264.875 475.733 268.664C475.55 270 475.317 271.305 475.098 272.618C475.098 271.745 475.098 271.014 475.049 270.902C474.633 267.471 471.917 261.115 468.32 260.406C467.719 260.307 467.105 260.343 466.517 260.511C465.93 260.68 465.383 260.977 464.911 261.383C464.439 261.79 464.054 262.297 463.78 262.872C463.505 263.446 463.349 264.075 463.319 264.718C463.115 267.441 464.977 270.164 466.796 271.887C468.616 273.61 473.003 275.162 474.555 275.684C474.287 277.02 474.019 278.355 473.709 279.638C473.469 280.503 473.307 281.361 473.003 282.219C472.7 283.077 472.481 283.92 472.228 284.763C471.677 286.36 471.12 288.016 470.542 289.56C470.154 290.634 469.759 291.656 469.371 292.678C469.568 291.358 469.907 288.747 469.907 288.523C469.859 285.486 469.077 282.512 467.636 279.884C467.643 279.545 467.622 279.205 467.572 278.87C467.497 278.231 467.295 277.617 466.98 277.067C466.665 276.517 466.244 276.043 465.744 275.676C465.244 275.31 464.677 275.058 464.079 274.939C463.482 274.82 462.867 274.835 462.275 274.983C458.749 275.983 456.499 282.548 456.336 285.994C456.336 286.203 456.449 288.419 456.548 289.821C456.372 289.008 456.209 288.217 456.019 287.382C455.645 285.725 455.229 284.092 454.785 282.324C454.545 281.481 454.305 280.623 454.079 279.765C453.854 278.907 453.508 278.027 453.219 277.146C452.513 275.125 451.724 273.111 450.87 271.104C452.238 270.753 457.084 269.448 459.031 267.874C460.977 266.3 463.016 263.733 463.002 260.996C463.018 260.353 462.905 259.715 462.673 259.121C462.44 258.528 462.092 257.993 461.651 257.551C461.21 257.109 460.686 256.77 460.113 256.557C459.54 256.343 458.931 256.259 458.325 256.311C454.686 256.728 451.526 262.853 450.87 266.24C450.828 266.449 450.609 268.933 450.517 270.306C449.995 269.097 449.488 267.896 448.923 266.695C447.294 263.234 445.545 259.78 443.817 256.333C443.288 255.274 442.773 254.214 442.251 253.155C442.738 253.036 448.528 251.618 450.715 249.85C452.648 248.276 454.707 245.703 454.686 242.972C454.702 242.33 454.59 241.691 454.357 241.098C454.124 240.504 453.776 239.969 453.335 239.528C452.894 239.086 452.37 238.747 451.797 238.533C451.224 238.32 450.615 238.236 450.01 238.287C446.37 238.705 443.217 244.83 442.554 248.217C442.505 248.47 442.202 252.051 442.166 252.961C441.017 250.626 439.895 248.291 438.879 245.941C437.492 242.776 436.3 239.519 435.31 236.191C435.536 236.131 441.581 234.699 443.817 232.871C445.749 231.297 447.802 228.724 447.788 225.993C447.804 225.351 447.691 224.712 447.459 224.119C447.226 223.525 446.878 222.99 446.437 222.549C445.996 222.107 445.472 221.768 444.899 221.554C444.326 221.341 443.717 221.257 443.111 221.308C439.472 221.726 436.312 227.851 435.656 231.238C435.6 231.506 435.275 235.348 435.268 236.049C435.205 235.863 435.127 235.669 435.078 235.475C434.17 232.106 433.55 228.658 433.223 225.173C433.018 223.248 432.926 221.398 432.877 219.6C434.027 219.451 439.289 218.712 441.468 217.317C443.647 215.922 445.862 213.662 446.123 210.946C446.209 210.309 446.166 209.659 445.998 209.04C445.831 208.421 445.541 207.846 445.149 207.354C444.757 206.861 444.271 206.461 443.723 206.18C443.175 205.9 442.577 205.744 441.969 205.724C438.308 205.724 434.535 211.446 433.505 214.729C433.448 214.908 433.082 216.795 432.835 218.168C432.835 217.355 432.792 216.519 432.799 215.736C432.799 212.811 432.976 210.133 433.152 207.761C433.258 206.411 433.385 205.195 433.512 204.031C434.57 203.285 438.802 200.1 440.1 197.839C441.397 195.579 442.413 192.453 441.461 189.917C441.258 189.311 440.936 188.756 440.517 188.291C440.098 187.825 439.59 187.458 439.028 187.214C438.465 186.969 437.861 186.853 437.253 186.873C436.645 186.893 436.048 187.048 435.501 187.328C432.249 189.104 431.396 196.019 431.932 199.428C431.981 199.727 433.209 204.24 433.265 204.203L433.328 204.158C433.187 205.247 433.046 206.396 432.912 207.701C432.694 210.074 432.461 212.759 432.397 215.698C432.296 218.863 432.367 222.031 432.609 225.188C432.868 228.714 433.425 232.21 434.274 235.632C434.274 235.669 434.274 235.714 434.309 235.751C433.73 234.796 432.038 232.178 431.89 232.021C429.774 229.41 424.166 225.687 420.802 227.202C420.249 227.469 419.756 227.857 419.355 228.34C418.953 228.822 418.652 229.388 418.471 230.002C418.29 230.616 418.234 231.262 418.305 231.901C418.375 232.539 418.573 233.154 418.883 233.707C420.089 236.146 423.066 237.325 425.485 237.698Z" fill="#49BC9F"/>
<path d="M488.225 219.518C488.281 219.555 489.395 215.005 489.431 214.706C489.882 211.29 488.852 204.397 485.558 202.711C485.004 202.446 484.404 202.309 483.796 202.307C483.188 202.305 482.586 202.438 482.031 202.699C481.475 202.959 480.977 203.341 480.57 203.819C480.163 204.296 479.856 204.859 479.669 205.471C478.78 208.037 479.902 211.185 481.228 213.356C482.787 215.9 488.225 219.518 488.225 219.518Z" fill="#49BC9F"/>
<path d="M479.909 343.533H444.804L440.417 302.294H484.296L479.909 343.533Z" fill="white" stroke="#263238" stroke-linecap="round" stroke-linejoin="round"/>
<path d="M441.221 309.851L441.644 313.85H483.069L483.492 309.851H441.221Z" fill="#263238"/>
<path d="M482.131 322.638L482.554 318.639H442.152L442.583 322.638H482.131Z" fill="#263238"/>
<path d="M297.129 252.036H275.813V342.996H297.129V252.036Z" fill="#263238" stroke="#263238" stroke-linecap="round" stroke-linejoin="round"/>
<path d="M426.402 101.993H157.374V274.58H426.402V101.993Z" fill="#263238" stroke="#263238" stroke-linecap="round" stroke-linejoin="round"/>
<path d="M420.985 101.993H151.957V274.58H420.985V101.993Z" fill="#49BC9F" stroke="#263238" stroke-linecap="round" stroke-linejoin="round"/>
<path d="M411.287 108.207H161.648V268.359H411.287V108.207Z" fill="white" stroke="#263238" stroke-linecap="round" stroke-linejoin="round"/>
<path d="M411.287 258.72H161.648V268.366H411.287V258.72Z" fill="white" stroke="#263238" stroke-linecap="round" stroke-linejoin="round"/>
<path d="M287.635 332.791L208.602 338.192V343.637H364.34V338.192L287.635 332.791Z" fill="#263238" stroke="#263238" stroke-linecap="round" stroke-linejoin="round"/>
<path d="M411.287 108.207H161.648V268.359H411.287V108.207Z" fill="white" stroke="#263238" stroke-linecap="round" stroke-linejoin="round"/>
<path d="M406.089 116.906H285.717V152.975H406.089V116.906Z" fill="white" stroke="#263238" stroke-linecap="round" stroke-linejoin="round"/>
<path d="M405.609 161.613H329.708V209.372H405.609V161.613Z" fill="white" stroke="#263238" stroke-linecap="round" stroke-linejoin="round"/>
<path d="M329.708 209.372L356.13 187.015L367.175 195.653L390.233 176.854L405.122 192.095V209.372H329.708Z" fill="#263238" stroke="#263238" stroke-linecap="round" stroke-linejoin="round"/>
<path d="M347.962 173.818C347.96 174.923 347.649 176.002 347.068 176.92C346.487 177.838 345.661 178.553 344.696 178.975C343.73 179.397 342.668 179.506 341.644 179.29C340.62 179.073 339.679 178.541 338.941 177.759C338.203 176.977 337.7 175.982 337.497 174.898C337.294 173.814 337.399 172.691 337.799 171.671C338.199 170.65 338.876 169.778 339.745 169.164C340.613 168.551 341.634 168.223 342.679 168.223C344.081 168.225 345.424 168.815 346.415 169.864C347.406 170.913 347.962 172.335 347.962 173.818Z" fill="#263238" stroke="#263238" stroke-linecap="round" stroke-linejoin="round"/>
<path d="M405.609 215.974H329.708V263.733H405.609V215.974Z" fill="white" stroke="#263238" stroke-linecap="round" stroke-linejoin="round"/>
<path d="M329.708 263.733L356.13 241.376L367.175 250.014L390.233 231.215L405.122 246.464V263.733H329.708Z" fill="#263238" stroke="#263238" stroke-linecap="round" stroke-linejoin="round"/>
<path d="M347.962 228.172C347.962 229.277 347.652 230.357 347.072 231.276C346.491 232.195 345.666 232.911 344.701 233.334C343.735 233.757 342.673 233.867 341.648 233.652C340.624 233.436 339.682 232.904 338.943 232.123C338.204 231.341 337.701 230.346 337.498 229.262C337.294 228.178 337.398 227.054 337.798 226.033C338.198 225.012 338.875 224.14 339.744 223.526C340.613 222.912 341.634 222.584 342.679 222.584C344.079 222.586 345.422 223.175 346.412 224.223C347.403 225.27 347.96 226.69 347.962 228.172Z" fill="#263238" stroke="#263238" stroke-linecap="round" stroke-linejoin="round"/>
<path d="M291.945 239.145L288.989 219.958H291.105L293.052 233.744L295.485 220.07H297.277L299.767 233.819L301.671 219.958H303.738L300.825 239.145H298.984L296.452 224.934L293.898 239.145H291.945Z" fill="#263238"/>
<path d="M306.46 221.122H324.206" stroke="#263238" stroke-miterlimit="10"/>
<path d="M306.46 226.299H324.206" stroke="#263238" stroke-miterlimit="10"/>
<path d="M306.46 231.476H324.206" stroke="#263238" stroke-miterlimit="10"/>
<path d="M306.46 236.654H324.206" stroke="#263238" stroke-miterlimit="10"/>
<path d="M306.46 241.831H324.206" stroke="#263238" stroke-miterlimit="10"/>
<path d="M306.46 247.008H324.206" stroke="#263238" stroke-miterlimit="10"/>
<path d="M306.46 252.185H324.206" stroke="#263238" stroke-miterlimit="10"/>
<path d="M306.46 257.362H324.206" stroke="#263238" stroke-miterlimit="10"/>
<path d="M306.46 262.54H324.206" stroke="#263238" stroke-miterlimit="10"/>
<path d="M295.866 162.374C291.019 162.367 286.279 163.889 282.253 166.746V108.207H161.641V268.359H282.253V209.827C285.434 212.074 289.067 213.502 292.863 213.997C296.659 214.492 300.512 214.04 304.113 212.677C307.714 211.314 310.963 209.078 313.601 206.148C316.238 203.218 318.19 199.676 319.3 195.805C320.411 191.934 320.649 187.842 319.996 183.856C319.342 179.871 317.815 176.102 315.538 172.853C313.26 169.603 310.294 166.963 306.878 165.143C303.462 163.324 299.691 162.375 295.866 162.374Z" fill="#263238" stroke="#263238" stroke-linecap="round" stroke-linejoin="round"/>
<path d="M174.196 132.654H228.479" stroke="white" stroke-width="2" stroke-linecap="round" stroke-linejoin="round"/>
<path d="M174.196 149.834H202.537" stroke="white" stroke-width="2" stroke-linecap="round" stroke-linejoin="round"/>
<path d="M174.196 140.382H200.618" stroke="#49BC9F" stroke-width="2" stroke-linecap="round" stroke-linejoin="round"/>
<path d="M206.381 140.382H220.311" stroke="#49BC9F" stroke-width="2" stroke-linecap="round" stroke-linejoin="round"/>
<path d="M228.479 140.382H242.409" stroke="#49BC9F" stroke-width="2" stroke-linecap="round" stroke-linejoin="round"/>
<path d="M174.196 157.137H200.618" stroke="white" stroke-width="2" stroke-linecap="round" stroke-linejoin="round"/>
<path d="M206.381 157.137H220.311" stroke="white" stroke-width="2" stroke-linecap="round" stroke-linejoin="round"/>
<path d="M228.479 157.137H242.409" stroke="#49BC9F" stroke-width="2" stroke-linecap="round" stroke-linejoin="round"/>
<path d="M174.196 173.885H200.618" stroke="white" stroke-width="2" stroke-linecap="round" stroke-linejoin="round"/>
<path d="M206.381 173.885H220.311" stroke="#49BC9F" stroke-width="2" stroke-linecap="round" stroke-linejoin="round"/>
<path d="M228.479 173.885H242.409" stroke="white" stroke-width="2" stroke-linecap="round" stroke-linejoin="round"/>
<path d="M190.525 181.188H210.62" stroke="white" stroke-width="2" stroke-linecap="round" stroke-linejoin="round"/>
<path d="M215.007 181.188H225.601" stroke="white" stroke-width="2" stroke-linecap="round" stroke-linejoin="round"/>
<path d="M231.808 181.188H242.409" stroke="white" stroke-width="2" stroke-linecap="round" stroke-linejoin="round"/>
<path d="M190.525 190.208H210.62" stroke="white" stroke-width="2" stroke-linecap="round" stroke-linejoin="round"/>
<path d="M215.007 190.208H225.601" stroke="white" stroke-width="2" stroke-linecap="round" stroke-linejoin="round"/>
<path d="M231.808 190.208H242.409" stroke="white" stroke-width="2" stroke-linecap="round" stroke-linejoin="round"/>
<path d="M174.196 200.085H228.479" stroke="#49BC9F" stroke-width="2" stroke-linecap="round" stroke-linejoin="round"/>
<path d="M174.196 217.265H202.537" stroke="white" stroke-width="2" stroke-linecap="round" stroke-linejoin="round"/>
<path d="M174.196 207.813H200.618" stroke="#49BC9F" stroke-width="2" stroke-linecap="round" stroke-linejoin="round"/>
<path d="M206.381 207.813H220.311" stroke="white" stroke-width="2" stroke-linecap="round" stroke-linejoin="round"/>
<path d="M228.479 207.813H242.409" stroke="#49BC9F" stroke-width="2" stroke-linecap="round" stroke-linejoin="round"/>
<path d="M174.196 224.568H200.618" stroke="#49BC9F" stroke-width="2" stroke-linecap="round" stroke-linejoin="round"/>
<path d="M206.381 224.568H220.311" stroke="#49BC9F" stroke-width="2" stroke-linecap="round" stroke-linejoin="round"/>
<path d="M228.479 224.568H242.409" stroke="white" stroke-width="2" stroke-linecap="round" stroke-linejoin="round"/>
<path d="M174.196 241.316H200.618" stroke="white" stroke-width="2" stroke-linecap="round" stroke-linejoin="round"/>
<path d="M206.381 241.316H220.311" stroke="#49BC9F" stroke-width="2" stroke-linecap="round" stroke-linejoin="round"/>
<path d="M228.479 241.316H242.409" stroke="#49BC9F" stroke-width="2" stroke-linecap="round" stroke-linejoin="round"/>
<path d="M190.525 248.619H210.62" stroke="white" stroke-width="2" stroke-linecap="round" stroke-linejoin="round"/>
<path d="M215.007 248.619H225.601" stroke="white" stroke-width="2" stroke-linecap="round" stroke-linejoin="round"/>
<path d="M231.808 248.619H242.409" stroke="white" stroke-width="2" stroke-linecap="round" stroke-linejoin="round"/>
<path d="M190.525 257.639H210.62" stroke="white" stroke-width="2" stroke-linecap="round" stroke-linejoin="round"/>
<path d="M215.007 257.639H225.601" stroke="white" stroke-width="2" stroke-linecap="round" stroke-linejoin="round"/>
<path d="M231.808 257.639H242.409" stroke="white" stroke-width="2" stroke-linecap="round" stroke-linejoin="round"/>
<path d="M175.677 122.344L180.777 119.561V120.367L176.482 122.65L180.777 124.925V125.731L175.677 122.948V122.344Z" fill="white" stroke="white" stroke-miterlimit="10"/>
<path d="M183.831 126.223L186.913 117.793H187.619L184.543 126.223H183.831Z" fill="white" stroke="white" stroke-miterlimit="10"/>
<path d="M195.779 122.993L190.68 125.761V124.955L195.011 122.68L190.68 120.397V119.591L195.779 122.359V122.993Z" fill="white" stroke="white" stroke-miterlimit="10"/>
<path d="M60.6306 343.637H508.538" stroke="#263238" stroke-miterlimit="10"/>
<path d="M37.3757 343.637H49.4299" stroke="#263238" stroke-miterlimit="10"/>
</svg>
